<?xml version="1.0" encoding="iso-8859-1"?>
<!-- Generator: Adobe Illustrator 19.0.0, SVG Export Plug-In . SVG Version: 6.00 Build 0)  -->
<svg version="1.1" id="Layer_1" xmlns="http://www.w3.org/2000/svg" xmlns:xlink="http://www.w3.org/1999/xlink" x="0px" y="0px"
	 viewBox="0 0 480 480" style="enable-background:new 0 0 480 480;" xml:space="preserve">
<path style="fill:#F8F8FA;" d="M440,472H40c-17.672,0-32-14.328-32-32V40C8,22.328,22.328,8,40,8h400c17.672,0,32,14.328,32,32v400
	C472,457.672,457.672,472,440,472z"/>
<path d="M440,480H40c-22.056,0-40-17.944-40-40V40C0,17.944,17.944,0,40,0h400c22.056,0,40,17.944,40,40v400
	C480,462.056,462.056,480,440,480z M40,16c-13.232,0-24,10.768-24,24v400c0,13.232,10.768,24,24,24h400c13.232,0,24-10.768,24-24V40
	c0-13.232-10.768-24-24-24H40z"/>
<circle style="fill:#F8F8FA;" cx="57.04" cy="379.52" r="19.816"/>
<path d="M57.04,407.352c-15.336,0-27.816-12.48-27.816-27.816s12.48-27.816,27.816-27.816c15.344,0,27.824,12.48,27.824,27.816
	S72.384,407.352,57.04,407.352z M57.04,367.72c-6.512,0-11.816,5.304-11.816,11.816s5.296,11.816,11.816,11.816
	s11.824-5.304,11.824-11.816S63.552,367.72,57.04,367.72z"/>
<path style="fill:#4A88DB;" d="M424,208H56c-8.84,0-16-7.16-16-16V64c0-8.84,7.16-16,16-16h368c8.84,0,16,7.16,16,16v128
	C440,200.84,432.84,208,424,208z"/>
<path d="M424,216H56c-13.232,0-24-10.768-24-24V64c0-13.232,10.768-24,24-24h368c13.232,0,24,10.768,24,24v128
	C448,205.232,437.232,216,424,216z M56,56c-4.416,0-8,3.592-8,8v128c0,4.408,3.584,8,8,8h368c4.416,0,8-3.592,8-8V64
	c0-4.408-3.584-8-8-8H56z"/>
<path style="fill:#F5BA46;" d="M329.424,104H152v-8c0-8.84,7.16-16,16-16h145.424c8.84,0,16,7.16,16,16V104z"/>
<path d="M329.432,112H152c-4.424,0-8-3.584-8-8v-8c0-13.232,10.768-24,24-24h145.432c13.232,0,24,10.768,24,24v8
	C337.432,108.416,333.848,112,329.432,112z M160,96h161.432c0-4.408-3.584-8-8-8H168C163.584,88,160,91.592,160,96z"/>
<path style="fill:#D84452;" d="M344,440H128c-8.84,0-16-7.16-16-16V168h248v256C360,432.84,352.84,440,344,440z"/>
<rect x="264" y="168" style="fill:#F5BA46;" width="48" height="272"/>
<circle cx="220" cy="244" r="12"/>
<circle cx="220" cy="284" r="12"/>
<circle style="fill:#E06975;" cx="179.952" cy="333.848" r="29.848"/>
<circle style="fill:#F7C86B;" cx="179.952" cy="379.52" r="29.848"/>
<path d="M217.8,333.848c0-20.872-16.976-37.848-37.84-37.848c-20.872,0-37.848,16.976-37.848,37.848
	c0,8.616,3.008,16.48,7.872,22.848c-4.864,6.368-7.872,14.232-7.872,22.848c0,20.872,16.976,37.848,37.848,37.848
	c20.864,0,37.84-16.976,37.84-37.848c0-8.616-3.008-16.48-7.872-22.848C214.792,350.32,217.8,342.464,217.8,333.848z M179.952,312
	c12.048,0,21.84,9.8,21.84,21.848c0,4.664-1.496,8.968-3.992,12.52c-5.344-2.888-11.36-4.68-17.848-4.68
	c-6.488,0-12.512,1.792-17.856,4.68c-2.496-3.552-4-7.856-4-12.52C158.104,321.8,167.904,312,179.952,312z M179.952,401.384
	c-12.048,0-21.848-9.8-21.848-21.848c0-4.664,1.496-8.968,4-12.52c5.344,2.888,11.368,4.68,17.856,4.68s12.504-1.792,17.848-4.68
	c2.496,3.552,3.992,7.856,3.992,12.52C201.8,391.584,192,401.384,179.952,401.384z"/>
<path style="fill:#6EA0E2;" d="M392,168H88c-8.84,0-16-7.16-16-16l0,0c0-8.84,7.16-16,16-16h304c8.84,0,16,7.16,16,16l0,0
	C408,160.84,400.84,168,392,168z"/>
<path d="M417.432,272H368v-96h24c13.232,0,24-10.768,24-24s-10.768-24-24-24H88c-13.232,0-24,10.768-24,24s10.768,24,24,24h16v248
	c0,13.232,10.768,24,24,24h136h48h32c13.232,0,24-10.768,24-24V288h49.432c4.424,0,8-3.584,8-8S421.848,272,417.432,272z M256,432
	H128c-4.416,0-8-3.592-8-8V176h136V432z M304,432h-32V176h32V432z M264,160H112H88c-4.416,0-8-3.592-8-8s3.584-8,8-8h304
	c4.416,0,8,3.592,8,8s-3.584,8-8,8h-32h-48H264z M352,424c0,4.408-3.584,8-8,8h-24V176h32V424z"/>
<g>
</g>
<g>
</g>
<g>
</g>
<g>
</g>
<g>
</g>
<g>
</g>
<g>
</g>
<g>
</g>
<g>
</g>
<g>
</g>
<g>
</g>
<g>
</g>
<g>
</g>
<g>
</g>
<g>
</g>
</svg>
