<?xml version="1.0" encoding="iso-8859-1"?>
<!-- Generator: Adobe Illustrator 19.0.0, SVG Export Plug-In . SVG Version: 6.00 Build 0)  -->
<svg version="1.1" id="Layer_1" xmlns="http://www.w3.org/2000/svg" xmlns:xlink="http://www.w3.org/1999/xlink" x="0px" y="0px"
	 viewBox="0 0 502 502" style="enable-background:new 0 0 502 502;" xml:space="preserve">
<g>
	<rect x="10" y="45.5" style="fill:#FFFFFF;" width="482" height="288"/>
	<rect x="10" y="333.5" style="fill:#3CB7C6;" width="482" height="73"/>
	<rect x="190" y="406.5" style="fill:#FCC54E;" width="122" height="50"/>
	<g>
		<path d="M366,466.5c5.523,0,10-4.477,10-10s-4.477-10-10-10h-44v-30h170c5.523,0,10-4.477,10-10v-361c0-5.523-4.477-10-10-10H10
			c-5.523,0-10,4.477-10,10v361c0,5.523,4.477,10,10,10h170v30h-44c-5.523,0-10,4.477-10,10s4.477,10,10,10H366z M20,55.5h462v268
			H20V55.5z M302,446.5H200v-30h102V446.5z M20,396.5v-53h462v53H20z"/>
		<path d="M250.803,391.303c7.123,0,13.81-3.49,17.889-9.336c3.16-4.53,2.05-10.763-2.479-13.923
			c-4.53-3.161-10.763-2.05-13.923,2.479c-0.164,0.235-0.636,0.781-1.486,0.781c-0.994,0-1.803-0.809-1.803-1.803
			s0.809-1.803,1.803-1.803c5.523,0,10-4.477,10-10s-4.477-10-10-10c-12.022,0-21.803,9.781-21.803,21.803
			S238.781,391.303,250.803,391.303z"/>
		<path d="M252,72.5H49c-5.523,0-10,4.477-10,10s4.477,10,10,10h203c5.523,0,10-4.477,10-10S257.523,72.5,252,72.5z"/>
		<path d="M322,72.5h-33c-5.523,0-10,4.477-10,10s4.477,10,10,10h33c5.523,0,10-4.477,10-10S327.523,72.5,322,72.5z"/>
	</g>
</g>
<g>
</g>
<g>
</g>
<g>
</g>
<g>
</g>
<g>
</g>
<g>
</g>
<g>
</g>
<g>
</g>
<g>
</g>
<g>
</g>
<g>
</g>
<g>
</g>
<g>
</g>
<g>
</g>
<g>
</g>
</svg>
